<?xml version="1.0" standalone="no"?><svg xmlns="http://www.w3.org/2000/svg" viewBox="0 0 1440 320"><path fill="#273036" fill-opacity="1" d="M0,96L18.5,117.3C36.9,139,74,181,111,192C147.7,203,185,181,222,176C258.5,171,295,181,332,170.7C369.2,160,406,128,443,144C480,160,517,224,554,213.3C590.8,203,628,117,665,96C701.5,75,738,117,775,117.3C812.3,117,849,75,886,74.7C923.1,75,960,117,997,149.3C1033.8,181,1071,203,1108,192C1144.6,181,1182,139,1218,154.7C1255.4,171,1292,245,1329,256C1366.2,267,1403,213,1422,186.7L1440,160L1440,320L1421.5,320C1403.1,320,1366,320,1329,320C1292.3,320,1255,320,1218,320C1181.5,320,1145,320,1108,320C1070.8,320,1034,320,997,320C960,320,923,320,886,320C849.2,320,812,320,775,320C738.5,320,702,320,665,320C627.7,320,591,320,554,320C516.9,320,480,320,443,320C406.2,320,369,320,332,320C295.4,320,258,320,222,320C184.6,320,148,320,111,320C73.8,320,37,320,18,320L0,320Z"></path></svg>