<?xml version="1.0" standalone="no"?><svg xmlns="http://www.w3.org/2000/svg" viewBox="0 0 1440 320"><path fill="#ffd700" fill-opacity="1" d="M0,160L17.1,138.7C34.3,117,69,75,103,64C137.1,53,171,75,206,85.3C240,96,274,96,309,128C342.9,160,377,224,411,240C445.7,256,480,224,514,192C548.6,160,583,128,617,138.7C651.4,149,686,203,720,197.3C754.3,192,789,128,823,122.7C857.1,117,891,171,926,208C960,245,994,267,1029,261.3C1062.9,256,1097,224,1131,213.3C1165.7,203,1200,213,1234,229.3C1268.6,245,1303,267,1337,256C1371.4,245,1406,203,1423,181.3L1440,160L1440,0L1422.9,0C1405.7,0,1371,0,1337,0C1302.9,0,1269,0,1234,0C1200,0,1166,0,1131,0C1097.1,0,1063,0,1029,0C994.3,0,960,0,926,0C891.4,0,857,0,823,0C788.6,0,754,0,720,0C685.7,0,651,0,617,0C582.9,0,549,0,514,0C480,0,446,0,411,0C377.1,0,343,0,309,0C274.3,0,240,0,206,0C171.4,0,137,0,103,0C68.6,0,34,0,17,0L0,0Z"></path></svg>