<?xml version="1.0" standalone="no"?><svg xmlns="http://www.w3.org/2000/svg" viewBox="0 0 1440 320"><path fill="#ffd700" fill-opacity="1" d="M0,32L26.7,32C53.3,32,107,32,160,42.7C213.3,53,267,75,320,96C373.3,117,427,139,480,144C533.3,149,587,139,640,112C693.3,85,747,43,800,58.7C853.3,75,907,149,960,170.7C1013.3,192,1067,160,1120,176C1173.3,192,1227,256,1280,240C1333.3,224,1387,128,1413,80L1440,32L1440,320L1413.3,320C1386.7,320,1333,320,1280,320C1226.7,320,1173,320,1120,320C1066.7,320,1013,320,960,320C906.7,320,853,320,800,320C746.7,320,693,320,640,320C586.7,320,533,320,480,320C426.7,320,373,320,320,320C266.7,320,213,320,160,320C106.7,320,53,320,27,320L0,320Z"></path></svg>