<?xml version="1.0" standalone="no"?><svg xmlns="http://www.w3.org/2000/svg" viewBox="0 0 1440 320"><path fill="#273036" fill-opacity="1" d="M0,192L14.1,165.3C28.2,139,56,85,85,106.7C112.9,128,141,224,169,245.3C197.6,267,226,213,254,181.3C282.4,149,311,139,339,128C367.1,117,395,107,424,117.3C451.8,128,480,160,508,165.3C536.5,171,565,149,593,149.3C621.2,149,649,171,678,170.7C705.9,171,734,149,762,138.7C790.6,128,819,128,847,154.7C875.3,181,904,235,932,256C960,277,988,267,1016,245.3C1044.7,224,1073,192,1101,170.7C1129.4,149,1158,139,1186,154.7C1214.1,171,1242,213,1271,245.3C1298.8,277,1327,299,1355,277.3C1383.5,256,1412,192,1426,160L1440,128L1440,0L1425.9,0C1411.8,0,1384,0,1355,0C1327.1,0,1299,0,1271,0C1242.4,0,1214,0,1186,0C1157.6,0,1129,0,1101,0C1072.9,0,1045,0,1016,0C988.2,0,960,0,932,0C903.5,0,875,0,847,0C818.8,0,791,0,762,0C734.1,0,706,0,678,0C649.4,0,621,0,593,0C564.7,0,536,0,508,0C480,0,452,0,424,0C395.3,0,367,0,339,0C310.6,0,282,0,254,0C225.9,0,198,0,169,0C141.2,0,113,0,85,0C56.5,0,28,0,14,0L0,0Z"></path></svg>